HIERARCHY
ROOT SpineBase
{
  OFFSET 0.000000 0.000000 0.000000
  CHANNELS 6 Xposition Yposition Zposition Zrotation Xrotation Yrotation
  JOINT SpineMid
  {
    OFFSET 0.000000 28.839060 0.000000
    CHANNELS 3 Zrotation Xrotation Yrotation
    JOINT SpineShoulder
    {
      OFFSET -0.025043 21.484020 -0.672098
      CHANNELS 3 Zrotation Xrotation Yrotation
      JOINT Neck
      {
        OFFSET -0.020276 7.127642 -0.522342
        CHANNELS 3 Zrotation Xrotation Yrotation
        JOINT Head
        {
          OFFSET -2.083102 11.643642 -0.829783
          CHANNELS 3 Zrotation Xrotation Yrotation
          End Site
          {
            OFFSET 0 0 0
          }
        }
      }
      JOINT ShoulderLeft
      {
        OFFSET -16.518686 -2.315408 5.037199
        CHANNELS 3 Zrotation Xrotation Yrotation
        JOINT ElbowLeft
        {
          OFFSET -2.734410 -25.308319 1.083230
          CHANNELS 3 Zrotation Xrotation Yrotation
          JOINT WristLeft
          {
            OFFSET -2.704687 -18.100359 -4.260729
            CHANNELS 3 Zrotation Xrotation Yrotation
            JOINT HandLeft
            {
              OFFSET 1.422761 -5.849226 -1.691292
              CHANNELS 3 Zrotation Xrotation Yrotation
              JOINT HandTipLeft
              {
                OFFSET -0.773150 -5.978714 -3.387229
                CHANNELS 3 Zrotation Xrotation Yrotation
                End Site
                {
                  OFFSET 0 0 0
                }
              }
              JOINT ThumbLeft
              {
                OFFSET 3.403601 1.277547 -2.210292
                CHANNELS 3 Zrotation Xrotation Yrotation
                End Site
                {
                  OFFSET 0 0 0
                }
              }
            }
          }
        }
      }
      JOINT ShoulderRight
      {
        OFFSET 15.548964 -1.807431 -5.084414
        CHANNELS 3 Zrotation Xrotation Yrotation
        JOINT ElbowRight
        {
          OFFSET 5.555074 -24.940474 -2.812821
          CHANNELS 3 Zrotation Xrotation Yrotation
          JOINT WristRight
          {
            OFFSET -0.275149 -19.547095 -4.197926
            CHANNELS 3 Zrotation Xrotation Yrotation
            JOINT HandRight
            {
              OFFSET -1.971815 -7.881909 -1.244073
              CHANNELS 3 Zrotation Xrotation Yrotation
              JOINT HandTipRight
              {
                OFFSET 0.040927 -6.500385 -2.100540
                CHANNELS 3 Zrotation Xrotation Yrotation
                End Site
                {
                  OFFSET 0 0 0
                }
              }
              JOINT ThumbRight
              {
                OFFSET -2.770681 -1.787665 -1.357930
                CHANNELS 3 Zrotation Xrotation Yrotation
                End Site
                {
                  OFFSET 0 0 0
                }
              }
            }
          }
        }
      }
    }
  }
  JOINT HipLeft
  {
    OFFSET -6.033437 0.567670 -1.924829
    CHANNELS 3 Zrotation Xrotation Yrotation
    JOINT KneeLeft
    {
      OFFSET -7.385939 -31.271009 4.600266
      CHANNELS 3 Zrotation Xrotation Yrotation
      JOINT AnkleLeft
      {
        OFFSET -1.780350 -34.970613 5.957556
        CHANNELS 3 Zrotation Xrotation Yrotation
        JOINT FootLeft
        {
          OFFSET -3.188458 -4.771622 -4.552001
          CHANNELS 3 Zrotation Xrotation Yrotation
          End Site
          {
            OFFSET 0 0 0
          }
        }
      }
    }
  }
  JOINT HipRight
  {
    OFFSET 5.700979 0.805720 -4.603442
    CHANNELS 3 Zrotation Xrotation Yrotation
    JOINT KneeRight
    {
      OFFSET 5.666867 -34.470558 4.809624
      CHANNELS 3 Zrotation Xrotation Yrotation
      JOINT AnkleRight
      {
        OFFSET 0.578409 -32.293860 7.163514
        CHANNELS 3 Zrotation Xrotation Yrotation
        JOINT FootRight
        {
          OFFSET -2.409297 -5.029938 -10.537902
          CHANNELS 3 Zrotation Xrotation Yrotation
          End Site
          {
            OFFSET 0 0 0
          }
        }
      }
    }
  }
}
MOTION
Frames: 7
Frame Time: 0.033333
18.031359 77.679192 379.431648 14.805695 -44.827072 26.206616 0.040827 0.674800 -19.741659 -0.378870 -0.112019 0.545744 28.343398 25.695018 -20.011596 0.000000 0.000000 0.000000 -8.133044 44.786090 1.292261 35.503120 49.343603 -33.446085 -36.376318 13.538689 17.051537 22.451587 3.776733 -19.967585 0.000000 0.000000 0.000000 0.000000 0.000000 0.000000 -4.514108 47.865738 -1.559600 -107.043390 14.930955 40.119947 -6.855444 4.839789 -15.722940 27.263030 -14.107465 18.388789 0.000000 0.000000 0.000000 0.000000 0.000000 0.000000 42.597553 64.419562 -59.208632 4.449695 -18.747867 8.949101 13.103079 -12.584463 -17.319281 0.000000 0.000000 0.000000 15.133802 62.794107 -27.660116 3.672555 -14.723120 -1.315273 2.050589 -8.972643 -5.679774 0.000000 0.000000 0.000000
17.824206 75.346752 378.795455 15.345332 -45.341182 31.872428 0.004760 0.779095 -25.043992 -0.411931 0.270578 0.528768 33.323404 19.689035 -21.755919 0.000000 0.000000 0.000000 -5.826469 45.538659 -0.424004 35.660698 54.426687 -37.246065 -35.975700 4.810113 14.537396 30.650290 6.527477 -19.281992 0.000000 0.000000 0.000000 0.000000 0.000000 0.000000 -8.716971 45.519896 1.246156 -102.940508 14.472752 41.565017 -5.163400 14.716572 -7.954164 27.229206 -19.194419 20.972498 0.000000 0.000000 0.000000 0.000000 0.000000 0.000000 52.899784 61.036188 -70.425729 3.779526 -18.762408 8.898315 16.738262 -11.850196 -22.003136 0.000000 0.000000 0.000000 20.222838 58.457227 -35.444998 3.623078 -10.533228 -0.902443 1.378289 -0.861052 -7.281560 0.000000 0.000000 0.000000
17.468465 71.857492 376.838524 14.698244 -43.553217 38.808546 -0.357243 -0.056951 -32.455344 -0.259709 0.467563 0.449263 31.222797 19.593202 -20.278452 0.000000 0.000000 0.000000 -4.092178 43.989984 -1.492047 43.660707 61.299844 -48.299062 -31.420705 -3.763217 13.533041 27.995504 7.250733 -20.680395 0.000000 0.000000 0.000000 0.000000 0.000000 0.000000 -8.673680 41.780740 0.689789 -102.798291 13.883337 44.112737 -1.770773 20.300732 -3.710156 22.113336 -19.318186 23.314415 0.000000 0.000000 0.000000 0.000000 0.000000 0.000000 57.373499 53.775408 -76.212630 3.452114 -18.118349 8.789440 19.069223 -7.262996 -28.667397 0.000000 0.000000 0.000000 21.333717 48.601481 -41.789302 3.335625 -3.435450 -0.149814 1.860143 2.150600 -9.261969 0.000000 0.000000 0.000000
17.229014 68.380312 375.272953 13.865464 -41.856951 45.416424 0.092870 1.149596 -39.638049 -0.167341 0.386525 0.392812 28.358542 19.838738 -17.701149 0.000000 0.000000 0.000000 -1.998842 40.099884 -2.287864 54.797299 61.976926 -59.488924 -29.265937 -6.486700 13.789690 7.002310 5.892885 -22.421229 0.000000 0.000000 0.000000 0.000000 0.000000 0.000000 -7.256487 36.730556 -0.499417 -104.281387 13.058840 46.810992 6.485749 20.929929 -2.659282 7.481640 -17.478400 21.001578 0.000000 0.000000 0.000000 0.000000 0.000000 0.000000 61.252046 46.701828 -81.352309 3.389047 -18.137486 9.066015 18.090643 2.899399 -35.048398 0.000000 0.000000 0.000000 19.843982 39.160760 -46.900166 3.083108 4.132702 0.699947 3.558666 -1.709063 -11.683011 0.000000 0.000000 0.000000
17.073214 64.752888 373.658809 12.695071 -39.212876 51.579480 0.269097 0.873753 -46.674791 -0.357973 0.379034 0.428754 19.805468 25.267989 -13.301220 0.000000 0.000000 0.000000 0.165244 34.825551 -2.715808 75.511352 64.471400 -82.775020 -26.609603 -14.321463 14.018149 -5.010646 7.343389 -23.650561 0.000000 0.000000 0.000000 0.000000 0.000000 0.000000 -4.841713 31.176267 -2.477375 -108.190695 11.331338 50.733294 12.972111 18.344839 -3.414117 -5.845988 -11.000648 21.646807 0.000000 0.000000 0.000000 0.000000 0.000000 0.000000 63.211708 39.706675 -84.956609 3.885957 -19.064470 9.804075 16.610201 12.530854 -39.348702 0.000000 0.000000 0.000000 14.685731 28.594476 -51.228869 2.566336 13.585653 1.810109 4.699307 -7.639165 -12.727699 0.000000 0.000000 0.000000
16.785949 61.461629 372.304333 10.942380 -36.214873 56.357504 0.286994 0.033200 -52.574457 -0.564519 0.428338 0.449907 4.578327 32.585458 -5.182786 0.000000 0.000000 0.000000 1.556161 29.726841 -2.542608 103.790990 63.651280 -114.404952 -23.487130 -19.971292 16.221904 -11.583284 3.300447 -26.433237 0.000000 0.000000 0.000000 0.000000 0.000000 0.000000 -1.853269 25.378579 -4.578246 -112.475201 9.598428 54.808676 15.862042 14.805818 -4.851991 -10.894133 -4.069944 26.245136 0.000000 0.000000 0.000000 0.000000 0.000000 0.000000 64.008193 33.366917 -86.981118 4.595308 -20.478810 10.780275 15.313863 22.606753 -43.374132 0.000000 0.000000 0.000000 8.560799 19.092406 -55.522868 2.291421 22.314288 2.866341 3.633140 -7.300423 -12.460605 0.000000 0.000000 0.000000
16.340694 59.165185 371.201655 10.460446 -34.624642 59.595607 0.284528 0.038415 -56.131517 -0.676002 0.576509 0.447186 -15.891974 39.501571 6.960793 0.000000 0.000000 0.000000 3.490214 27.371703 -3.086692 125.901018 59.401662 -141.733443 -20.154256 -23.056390 19.885760 -41.346668 23.294698 -30.551453 0.000000 0.000000 0.000000 0.000000 0.000000 0.000000 2.941404 19.881846 -7.649864 -118.844199 6.916013 58.419875 16.986615 10.623481 -6.715338 -12.083295 0.939095 30.512496 0.000000 0.000000 0.000000 0.000000 0.000000 0.000000 65.503649 29.830838 -89.357472 5.448313 -22.495515 11.935204 11.857535 33.507442 -44.620250 0.000000 0.000000 0.000000 2.885259 13.519370 -58.627468 3.057275 29.343855 3.435160 0.444509 4.330144 -12.748617 0.000000 0.000000 0.000000
